<?xml version="1.0" encoding="UTF-8" standalone="no" ?>
<!DOCTYPE svg PUBLIC "-//W3C//DTD SVG 1.1//EN" "http://www.w3.org/Graphics/SVG/1.1/DTD/svg11.dtd">
<svg xmlns="http://www.w3.org/2000/svg" xmlns:xlink="http://www.w3.org/1999/xlink" version="1.1" width="40" height="40"
     viewBox="0 0 500 500" xml:space="preserve">
<desc>Created with Fabric.js 4.6.0</desc>
    <defs>
</defs>
    <g transform="matrix(11.92 0 0 11.92 250 250)" id="bwOajmiNDKTAf8Cnwr2uZ">
<g style="" vector-effect="non-scaling-stroke">
		<g transform="matrix(0.08 0 0 0.08 0 0)" id="v_nkoecyOVJIyDLncSAmO">
<path style="stroke: none; stroke-width: 1; stroke-dasharray: none; stroke-linecap: butt; stroke-dashoffset: 0; stroke-linejoin: miter; stroke-miterlimit: 4; fill: rgb(57,163,219); fill-rule: nonzero; opacity: 1;"
      vector-effect="non-scaling-stroke" transform=" translate(-256, -256)"
      d="M 460.803 446.739 L 51.197 446.739 C 22.967 446.739 0 423.772 0 395.542 L 0 116.457 C 0 88.227 22.967 65.26 51.197 65.26 L 460.802 65.26 C 489.03200000000004 65.26 511.999 88.227 511.999 116.45700000000001 L 511.999 395.541 C 512 423.772 489.033 446.739 460.803 446.739 z"
      stroke-linecap="round"/>
</g>
    <g transform="matrix(0.08 0 0 0.08 10.24 0)" id="CrpYzcDTFSK-nUaMcNCK8">
<path style="stroke: none; stroke-width: 1; stroke-dasharray: none; stroke-linecap: butt; stroke-dashoffset: 0; stroke-linejoin: miter; stroke-miterlimit: 4; fill: rgb(57,163,219); fill-rule: nonzero; opacity: 1;"
      vector-effect="non-scaling-stroke" transform=" translate(-384, -256)"
      d="M 460.803 65.26 L 255.999 65.26 L 255.999 446.739 L 460.801 446.739 C 489.031 446.739 511.998 423.772 511.998 395.542 L 511.998 116.457 C 512 88.227 489.033 65.26 460.803 65.26 z"
      stroke-linecap="round"/>
</g>
    <g transform="matrix(0.08 0 0 0.08 -7.73 0)" id="WYyliLm6Xk-3ho7sS8APK">
<path style="stroke: none; stroke-width: 1; stroke-dasharray: none; stroke-linecap: butt; stroke-dashoffset: 0; stroke-linejoin: miter; stroke-miterlimit: 4; fill: rgb(255,255,255); fill-rule: nonzero; opacity: 1;"
      vector-effect="non-scaling-stroke" transform=" translate(-159.35, -256)"
      d="M 237.413 381.144 L 81.291 381.144 C 71.027 381.144 62.705 372.822 62.705 362.558 L 62.705 149.439 C 62.705 139.17499999999998 71.027 130.853 81.291 130.853 L 237.413 130.853 C 247.67700000000002 130.853 255.99900000000002 139.175 255.99900000000002 149.43900000000002 L 255.99900000000002 362.558 C 255.999 372.824 247.679 381.144 237.413 381.144 z"
      stroke-linecap="round"/>
</g>
    <g transform="matrix(0.08 0 0 0.08 -7.73 -1.49)" id="yyI5tu7ALGNb_bV_EjW24">
<path style="stroke: none; stroke-width: 1; stroke-dasharray: none; stroke-linecap: butt; stroke-dashoffset: 0; stroke-linejoin: miter; stroke-miterlimit: 4; fill: rgb(0,113,188); fill-rule: nonzero; opacity: 1;"
      vector-effect="non-scaling-stroke" transform=" translate(-27.2, -27.2)"
      d="M 0 27.204 C 0 12.17965 12.17965 0 27.204 0 C 42.22835 0 54.408 12.17965 54.408 27.204 C 54.408 42.22835 42.22835 54.408 27.204 54.408 C 12.17965 54.408 0 42.22835 0 27.204 z"
      stroke-linecap="round"/>
</g>
    <g transform="matrix(0.08 0 0 0.08 -7.65 5.44)" id="6s1PcILWcwMXGXvXebqBU">
<path style="stroke: none; stroke-width: 1; stroke-dasharray: none; stroke-linecap: butt; stroke-dashoffset: 0; stroke-linejoin: miter; stroke-miterlimit: 4; fill: rgb(0,113,188); fill-rule: nonzero; opacity: 1;"
      vector-effect="non-scaling-stroke" transform=" translate(-160.41, -324.06)"
      d="M 160.414 285.559 C 120.15299999999999 285.559 87.10799999999999 316.459 83.704 355.838 C 83.392 359.452 86.25999999999999 362.559 89.88799999999999 362.559 L 230.94099999999997 362.559 C 234.56899999999996 362.559 237.43699999999998 359.45300000000003 237.12499999999997 355.838 C 233.72 316.46 200.676 285.559 160.414 285.559 z"
      stroke-linecap="round"/>
</g>
    <g transform="matrix(0.08 0 0 0.08 8.75 -5.86)" id="dl3kWYa1XUwduUJVyrBjg">
<path style="stroke: none; stroke-width: 1; stroke-dasharray: none; stroke-linecap: butt; stroke-dashoffset: 0; stroke-linejoin: miter; stroke-miterlimit: 4; fill: rgb(255,255,255); fill-rule: nonzero; opacity: 1;"
      vector-effect="non-scaling-stroke" transform=" translate(-365.41, -182.72)"
      d="M 439.004 234.586 L 291.824 234.586 C 281.56 234.586 273.238 226.264 273.238 216 L 273.238 149.439 C 273.238 139.17499999999998 281.56 130.853 291.824 130.853 L 439.004 130.853 C 449.26800000000003 130.853 457.59000000000003 139.175 457.59000000000003 149.43900000000002 L 457.59000000000003 216.00000000000003 C 457.59 226.265 449.269 234.586 439.004 234.586 z"
      stroke-linecap="round"/>
</g>
    <g transform="matrix(0.08 0 0 0.08 8.75 4.66)" id="V50uWkEYZstM1YsfE4I8E">
<path style="stroke: none; stroke-width: 1; stroke-dasharray: none; stroke-linecap: butt; stroke-dashoffset: 0; stroke-linejoin: miter; stroke-miterlimit: 4; fill: rgb(255,255,255); fill-rule: nonzero; opacity: 1;"
      vector-effect="non-scaling-stroke" transform=" translate(-365.41, -314.24)"
      d="M 439.004 332.821 L 291.824 332.821 C 281.56 332.821 273.238 324.499 273.238 314.235 C 273.238 303.971 281.56 295.649 291.824 295.649 L 439.004 295.649 C 449.26800000000003 295.649 457.59000000000003 303.971 457.59000000000003 314.235 C 457.59 324.5 449.269 332.821 439.004 332.821 z"
      stroke-linecap="round"/>
</g>
    <g transform="matrix(0.08 0 0 0.08 8.75 8.52)" id="ozAleOcPU7526VQRoCxvT">
<path style="stroke: none; stroke-width: 1; stroke-dasharray: none; stroke-linecap: butt; stroke-dashoffset: 0; stroke-linejoin: miter; stroke-miterlimit: 4; fill: rgb(255,255,255); fill-rule: nonzero; opacity: 1;"
      vector-effect="non-scaling-stroke" transform=" translate(-365.41, -362.56)"
      d="M 439.004 381.144 L 291.824 381.144 C 281.56 381.144 273.238 372.822 273.238 362.558 C 273.238 352.294 281.56 343.972 291.824 343.972 L 439.004 343.972 C 449.26800000000003 343.972 457.59000000000003 352.294 457.59000000000003 362.558 C 457.59 372.824 449.269 381.144 439.004 381.144 z"
      stroke-linecap="round"/>
</g>
    <g transform="matrix(0.08 0 0 0.08 8.75 0.79)" id="jzmM9LWDuVU9wNd9ZLtFO">
<path style="stroke: none; stroke-width: 1; stroke-dasharray: none; stroke-linecap: butt; stroke-dashoffset: 0; stroke-linejoin: miter; stroke-miterlimit: 4; fill: rgb(255,255,255); fill-rule: nonzero; opacity: 1;"
      vector-effect="non-scaling-stroke" transform=" translate(-365.41, -265.91)"
      d="M 439.004 284.497 L 291.824 284.497 C 281.56 284.497 273.238 276.175 273.238 265.911 C 273.238 255.647 281.56 247.325 291.824 247.325 L 439.004 247.325 C 449.26800000000003 247.325 457.59000000000003 255.647 457.59000000000003 265.911 C 457.59 276.177 449.269 284.497 439.004 284.497 z"
      stroke-linecap="round"/>
</g>
</g>
</g>
</svg>