<?xml version="1.0" encoding="UTF-8" standalone="no" ?>
<!DOCTYPE svg PUBLIC "-//W3C//DTD SVG 1.1//EN" "http://www.w3.org/Graphics/SVG/1.1/DTD/svg11.dtd">
<svg xmlns="http://www.w3.org/2000/svg" xmlns:xlink="http://www.w3.org/1999/xlink" version="1.1" width="40" height="40"
     viewBox="0 0 500 500" xml:space="preserve">
<desc>Created with Fabric.js 4.6.0</desc>
    <defs>
</defs>
    <g transform="matrix(1 0 0 1 249.01 251)" id="lX8-e71rYi_ko-D2Z__iz">
<path style="stroke: none; stroke-width: 1; stroke-dasharray: none; stroke-linecap: butt; stroke-dashoffset: 0; stroke-linejoin: miter; stroke-miterlimit: 4; fill: rgb(0,113,188); fill-rule: nonzero; opacity: 1;"
      vector-effect="non-scaling-stroke" transform=" translate(-250, -250)"
      d="M 139.926 276.627 C 138.762 275.373 137.72099999999998 274.031 136.826 272.636 C 135.927 271.232 135.141 269.73100000000005 134.495 268.172 C 132.334 263.02500000000003 131.749 257.466 132.66 252.16500000000002 C 133.571 246.90000000000003 135.964 241.866 139.756 237.728 L 141.14 236.304 C 150.47 227.413 164.62199999999999 225.757 175.72199999999998 232.434 C 177.30899999999997 233.381 178.82199999999997 234.509 180.23399999999998 235.799 L 180.373 235.925 C 188.23 243.461 201.524 255.786 210.25199999999998 263.55400000000003 L 217.743 270.271 L 309.426 174.101 C 310.716 172.771 312.13599999999997 171.579 313.637 170.536 C 315.174 169.474 316.791 168.575 318.458 167.846 C 320.14300000000003 167.11 321.92400000000004 166.532 323.74800000000005 166.13400000000001 C 325.56700000000006 165.73200000000003 327.422 165.50300000000001 329.26500000000004 165.46300000000002 L 329.37100000000004 165.46300000000002 C 331.206 165.443 333.00500000000005 165.57300000000004 334.82700000000006 165.88200000000003 C 336.60600000000005 166.18300000000002 338.39200000000005 166.66700000000003 340.25100000000003 167.38300000000004 C 341.963 168.03800000000004 343.60800000000006 168.86000000000004 345.16200000000003 169.84000000000003 C 346.64700000000005 170.78000000000003 348.09600000000006 171.89900000000003 349.45900000000006 173.18500000000003 L 350.11800000000005 173.78400000000002 C 351.40400000000005 175.05800000000002 352.56300000000005 176.44100000000003 353.57700000000006 177.91000000000003 C 354.61800000000005 179.41100000000003 355.50900000000007 181.02700000000002 356.22900000000004 182.70400000000004 C 356.97400000000005 184.38900000000004 357.55100000000004 186.17000000000004 357.95400000000006 187.99000000000004 C 358.36100000000005 189.77600000000004 358.58000000000004 191.63100000000003 358.62500000000006 193.52400000000003 L 358.62500000000006 194.46000000000004 C 358.60900000000004 196.08400000000003 358.45400000000006 197.73100000000002 358.16100000000006 199.35900000000004 C 357.84000000000003 201.12900000000005 357.3550000000001 202.87000000000003 356.71200000000005 204.53000000000003 C 356.06100000000004 206.23100000000002 355.22700000000003 207.88700000000003 354.242 209.45400000000004 C 353.273 210.98800000000003 352.135 212.46100000000004 350.857 213.80800000000005 L 240.103 330.01800000000003 C 238.80100000000002 331.40900000000005 237.406 332.63000000000005 235.94400000000002 333.672 C 234.443 334.74600000000004 232.823 335.66900000000004 231.13000000000002 336.44300000000004 C 229.43400000000003 337.208 227.66800000000003 337.814 225.889 338.23300000000006 C 224.119 338.65700000000004 222.27200000000002 338.9080000000001 220.395 338.9940000000001 L 219.88600000000002 339.0060000000001 C 218.16500000000002 339.0420000000001 216.46900000000002 338.9410000000001 214.836 338.6890000000001 L 214.42100000000002 338.60800000000006 C 212.73200000000003 338.32300000000004 211.08900000000003 337.90100000000007 209.51700000000002 337.34700000000004 C 207.80500000000004 336.737 206.12700000000004 335.951 204.52800000000002 335.00700000000006 L 204.27200000000002 334.8450000000001 C 202.76200000000003 333.9340000000001 201.35500000000002 332.9040000000001 200.073 331.7780000000001 L 199.817 331.53400000000005 C 193.388 325.5690000000001 186.401 319.49800000000005 179.33700000000002 313.362 C 167.10200000000003 302.73 150.13000000000002 287.39300000000003 139.95700000000002 276.66 L 139.92100000000002 276.63100000000003 z M 250 0 C 319.01 0 381.54200000000003 28.007 426.81100000000004 73.189 C 471.99300000000005 118.45599999999999 499.99600000000004 180.98899999999998 499.99600000000004 250 C 499.99600000000004 319.014 471.98900000000003 381.546 426.81100000000004 426.815 C 381.547 471.997 319.011 500 250.00000000000003 500 C 180.98600000000005 500 118.45400000000004 471.996 73.18500000000003 426.815 C 28.00300000000003 381.548 2.842170943040401e-14 319.01099999999997 2.842170943040401e-14 249.996 C 2.842170943040401e-14 180.991 28.00400000000003 118.45700000000002 73.18500000000003 73.19 C 118.45700000000002 28.007999999999996 180.985 0.0010000000000047748 250.00000000000003 0.0010000000000047748 z M 394.282 105.716 C 357.363 68.794 306.356 45.961999999999996 249.99999999999997 45.961999999999996 C 193.64 45.961999999999996 142.63099999999997 68.79299999999999 105.71299999999997 105.716 C 68.79399999999997 142.635 45.962999999999965 193.642 45.962999999999965 249.995 C 45.962999999999965 306.355 68.79399999999997 357.36400000000003 105.71299999999997 394.283 C 142.63199999999995 431.202 193.63899999999995 454.03700000000003 249.99999999999997 454.03700000000003 C 306.356 454.03700000000003 357.36499999999995 431.206 394.282 394.283 C 431.20099999999996 357.361 454.032 306.357 454.032 249.995 C 454.032 193.643 431.205 142.635 394.282 105.71600000000001 z"
      stroke-linecap="round"/>
</g>
</svg>