<?xml version="1.0" encoding="UTF-8" standalone="no" ?>
<!DOCTYPE svg PUBLIC "-//W3C//DTD SVG 1.1//EN" "http://www.w3.org/Graphics/SVG/1.1/DTD/svg11.dtd">
<svg xmlns="http://www.w3.org/2000/svg" xmlns:xlink="http://www.w3.org/1999/xlink" version="1.1" width="40" height="40"
     viewBox="0 0 500 500" xml:space="preserve">
<desc>Created with Fabric.js 4.6.0</desc>
    <defs>
</defs>
    <g transform="matrix(12.42 0 0 12.42 250 250)" id="8VkJ9XKslLW72T62BdqCj">
<g style="" vector-effect="non-scaling-stroke">
		<g transform="matrix(0.1 0 0 0.1 0 0)" id="Nm1iF_65g4i43VSe4pRHZ">
<path style="stroke: none; stroke-width: 1; stroke-dasharray: none; stroke-linecap: butt; stroke-dashoffset: 0; stroke-linejoin: miter; stroke-miterlimit: 4; fill: rgb(255,255,255); fill-rule: nonzero; opacity: 1;"
      vector-effect="non-scaling-stroke" transform=" translate(-196.3, -196.27)"
      d="M 328.695 21.786 L 32.743 21.786 C 26.731 21.786 21.818 26.634 21.818 32.711 L 21.818 359.822 C 21.818 365.834 26.666 370.747 32.743 370.747 L 359.854 370.747 C 365.866 370.747 370.779 365.899 370.779 359.822 L 370.779 63.871 L 328.695 21.786 z"
      stroke-linecap="round"/>
</g>
    <g transform="matrix(0.1 0 0 0.1 0 0)" id="ZcJ7IrQJv67wl6bas_yCl">
<path style="stroke: none; stroke-width: 1; stroke-dasharray: none; stroke-linecap: butt; stroke-dashoffset: 0; stroke-linejoin: miter; stroke-miterlimit: 4; fill: rgb(86,172,224); fill-rule: nonzero; opacity: 1;"
      vector-effect="non-scaling-stroke" transform=" translate(-196.3, -196.33)"
      d="M 43.604 65.422 L 43.604 264.145 L 115.16799999999999 264.145 C 121.17999999999999 264.145 126.09299999999999 268.99399999999997 126.09299999999999 275.07 C 126.09299999999999 281.082 121.24499999999999 285.995 115.16799999999999 285.995 L 43.604 285.995 L 43.604 313.147 L 82.392 313.147 C 88.404 313.147 93.317 317.995 93.317 324.072 C 93.317 330.149 88.469 334.997 82.392 334.997 L 45.156 334.997 C 48.324 343.207 56.211 349.09000000000003 65.455 349.09000000000003 L 327.209 349.09000000000003 C 339.233 349.09000000000003 348.995 339.32800000000003 348.995 327.30400000000003 L 348.995 81.972 C 348.995 76.154 346.668 70.594 342.595 66.52099999999999 L 326.04600000000005 49.97199999999999 C 323.13700000000006 47.06299999999999 319.45200000000006 45.12399999999999 315.50900000000007 44.15399999999999 L 315.50900000000007 118.303 C 315.50900000000007 124.315 310.66100000000006 129.228 304.58400000000006 129.228 L 88.016 129.228 C 82.004 129.228 77.09100000000001 124.38000000000001 77.09100000000001 118.30300000000001 L 77.09100000000001 43.572 L 65.455 43.572 C 53.43 43.572 43.604 53.398 43.604 65.422 z"
      stroke-linecap="round"/>
</g>
    <g transform="matrix(0.1 0 0 0.1 0 0)" id="-s7g72PvznlAGg-lYxgyV">
<path style="stroke: none; stroke-width: 1; stroke-dasharray: none; stroke-linecap: butt; stroke-dashoffset: 0; stroke-linejoin: miter; stroke-miterlimit: 4; fill: rgb(25,79,130); fill-rule: nonzero; opacity: 1;"
      vector-effect="non-scaling-stroke" transform=" translate(-196.3, -196.3)"
      d="M 389.398 51.717 L 340.849 3.168 C 338.844 1.164 336.065 0 333.091 0 L 32.743 0 C 14.707 0 0.032 14.675 0.032 32.711 L 0.032 359.822 C 0.032 377.923 14.707 392.598 32.742999999999995 392.598 L 359.854 392.598 C 377.89 392.598 392.565 377.923 392.565 359.887 L 392.565 59.41 C 392.566 56.501 391.402 53.786 389.398 51.717 z M 98.941 21.786 L 293.656 21.786 L 293.656 107.378 L 98.941 107.378 L 98.941 21.786 z M 370.78 359.822 C 370.78 365.834 365.93199999999996 370.747 359.85499999999996 370.747 L 32.743 370.747 C 26.731 370.747 21.818 365.899 21.818 359.822 L 21.818 32.711 C 21.818 26.698999999999998 26.666 21.785999999999998 32.743 21.785999999999998 L 77.155 21.785999999999998 L 77.155 118.368 C 77.155 124.38 82.003 129.293 88.08 129.293 L 304.581 129.293 C 310.593 129.293 315.50600000000003 124.44500000000001 315.50600000000003 118.36800000000001 L 315.50600000000003 21.786 L 328.694 21.786 L 370.779 63.871 L 370.78 359.822 L 370.78 359.822 z"
      stroke-linecap="round"/>
</g>
    <g transform="matrix(0.1 0 0 0.1 0 3.07)" id="tv0xA5IXXsk4_nqi5s6L9">
<path style="stroke: none; stroke-width: 1; stroke-dasharray: none; stroke-linecap: butt; stroke-dashoffset: 0; stroke-linejoin: miter; stroke-miterlimit: 4; fill: rgb(236,236,236); fill-rule: nonzero; opacity: 1;"
      vector-effect="non-scaling-stroke" transform=" translate(-196.3, -226.97)"
      d="M 196.299 179.006 C 169.794 179.006 148.33100000000002 200.53300000000002 148.33100000000002 226.974 C 148.33100000000002 253.47899999999998 169.858 274.942 196.29900000000004 274.942 C 222.80400000000003 274.942 244.26700000000005 253.41500000000002 244.26700000000005 226.974 C 244.26700000000005 200.53299999999996 222.804 179.006 196.299 179.006 z"
      stroke-linecap="round"/>
</g>
    <g transform="matrix(0.1 0 0 0.1 0 -13.17)" id="rukRVWulo3qPIgnYlcwq7">
<path style="stroke: none; stroke-width: 1; stroke-dasharray: none; stroke-linecap: butt; stroke-dashoffset: 0; stroke-linejoin: miter; stroke-miterlimit: 4; fill: rgb(81,179,218); fill-opacity: 0; fill-rule: nonzero; opacity: 1;"
      vector-effect="non-scaling-stroke" transform=" translate(-97.36, -42.8)"
      d="M 0 85.592 L 0 0 L 194.715 0 L 194.715 85.592 z" stroke-linecap="round"/>
</g>
    <g transform="matrix(0.1 0 0 0.1 0 3.08)" id="bOlOQZYTwyK_iQl8l2DxB">
<path style="stroke: none; stroke-width: 1; stroke-dasharray: none; stroke-linecap: butt; stroke-dashoffset: 0; stroke-linejoin: miter; stroke-miterlimit: 4; fill: rgb(25,79,130); fill-rule: nonzero; opacity: 1;"
      vector-effect="non-scaling-stroke" transform=" translate(-196.3, -227.1)"
      d="M 196.299 157.22 C 157.834 157.22 126.41600000000001 188.50900000000001 126.41600000000001 227.103 C 126.41600000000001 265.568 157.705 296.986 196.299 296.986 C 234.764 296.986 266.182 265.697 266.182 227.103 C 266.182 188.50900000000001 234.764 157.22 196.299 157.22 z M 196.299 275.071 C 169.794 275.071 148.33100000000002 253.54400000000004 148.33100000000002 227.103 C 148.33100000000002 200.598 169.858 179.135 196.29900000000004 179.135 C 222.80400000000003 179.135 244.26700000000005 200.66199999999998 244.26700000000005 227.103 C 244.26700000000005 253.54400000000004 222.804 275.071 196.299 275.071 z"
      stroke-linecap="round"/>
</g>
    <g transform="matrix(0.1 0 0 0.1 5.89 -13.16)" id="Y__yEFYYSd3nBia7C3F7Q">
<path style="stroke: none; stroke-width: 1; stroke-dasharray: none; stroke-linecap: butt; stroke-dashoffset: 0; stroke-linejoin: miter; stroke-miterlimit: 4; fill: rgb(25,79,130); fill-rule: nonzero; opacity: 1;"
      vector-effect="non-scaling-stroke" transform=" translate(-255.19, -64.65)"
      d="M 255.192 35.232 C 249.18 35.232 244.267 40.08 244.267 46.157 L 244.267 83.13499999999999 C 244.267 89.14699999999999 249.115 94.05999999999999 255.192 94.05999999999999 C 261.204 94.05999999999999 266.117 89.21199999999999 266.117 83.13499999999999 L 266.117 46.093 C 266.182 40.081 261.204 35.232 255.192 35.232 z"
      stroke-linecap="round"/>
</g>
</g>
</g>
</svg>