<?xml version="1.0" encoding="UTF-8" standalone="no" ?>
<!DOCTYPE svg PUBLIC "-//W3C//DTD SVG 1.1//EN" "http://www.w3.org/Graphics/SVG/1.1/DTD/svg11.dtd">
<svg xmlns="http://www.w3.org/2000/svg" xmlns:xlink="http://www.w3.org/1999/xlink" version="1.1" width="40" height="40"
     viewBox="0 0 500 500" xml:space="preserve">
<desc>Created with Fabric.js 4.6.0</desc>
    <defs>
</defs>
    <g transform="matrix(0.97 0 0 0.97 250.3 250.3)" id="xoVyBxTVTUvGyUY3uZkqw">
<g style="" vector-effect="non-scaling-stroke">
		<g transform="matrix(1 0 0 1 -119.28 0)" id="JwahbUE2fjmzMzLt0lG2R">
<path style="stroke: none; stroke-width: 1; stroke-dasharray: none; stroke-linecap: butt; stroke-dashoffset: 0; stroke-linejoin: miter; stroke-miterlimit: 4; fill: rgb(244,178,176); fill-rule: nonzero; opacity: 1;"
      vector-effect="non-scaling-stroke" transform=" translate(-136.72, -256)"
      d="M 256.001 158.605 L 114.83299999999997 17.436999999999983 L 17.43699999999997 114.82999999999998 L 158.60499999999996 255.99999999999997 L 17.436999999999955 397.16999999999996 L 114.83299999999996 494.563 L 255.60299999999995 353.793 L 256.001 353.395 z"
      stroke-linecap="round"/>
</g>
    <g transform="matrix(1 0 0 1 0 0)" id="dbwUoDDfHBN7qL6sOgoW4">
<path style="stroke: none; stroke-width: 1; stroke-dasharray: none; stroke-linecap: butt; stroke-dashoffset: 0; stroke-linejoin: miter; stroke-miterlimit: 4; fill: rgb(179,64,74); fill-rule: nonzero; opacity: 1;"
      vector-effect="non-scaling-stroke" transform=" translate(-256, -256)"
      d="M 378.055 256 L 506.895 127.161 C 513.704 120.352 513.704 109.311 506.895 102.50200000000001 L 409.498 5.105 C 402.691 -1.702 391.64799999999997 -1.702 384.839 5.105 L 256.001 133.944 L 127.162 5.105 C 126.73700000000001 4.680000000000001 126.29400000000001 4.28 125.837 3.9090000000000007 C 122.643 1.303 118.737 0 114.833 0 C 112.601 0 110.371 0.425 108.27199999999999 1.276 C 106.17299999999999 2.127 104.20599999999999 3.4029999999999996 102.50399999999999 5.105 L 5.108 102.503 C -1.7010000000000005 109.312 -1.7010000000000005 120.35300000000001 5.108 127.162 L 133.948 256 L 5.108 384.839 C -1.7010000000000005 391.648 -1.7010000000000005 402.689 5.108 409.498 L 102.503 506.893 C 105.908 510.29699999999997 110.37 512 114.832 512 C 119.294 512 123.758 510.296 127.161 506.893 L 267.932 366.121 L 268.33000000000004 365.72299999999996 C 268.74300000000005 365.30999999999995 269.13200000000006 364.87899999999996 269.49800000000005 364.431 C 269.77500000000003 364.091 270.02500000000003 363.73699999999997 270.27400000000006 363.383 C 270.35100000000006 363.27099999999996 270.44000000000005 363.169 270.51500000000004 363.055 C 270.80400000000003 362.623 271.064 362.178 271.31000000000006 361.726 C 271.33400000000006 361.682 271.3620000000001 361.641 271.38700000000006 361.597 C 271.6310000000001 361.138 271.84900000000005 360.671 272.05000000000007 360.197 C 272.0710000000001 360.15 272.0950000000001 360.105 272.11500000000007 360.056 C 272.30000000000007 359.606 272.45900000000006 359.149 272.6050000000001 358.68899999999996 C 272.6310000000001 358.60699999999997 272.6640000000001 358.52899999999994 272.69000000000005 358.44499999999994 C 272.81700000000006 358.0229999999999 272.91700000000003 357.59599999999995 273.0110000000001 357.1669999999999 C 273.0390000000001 357.0379999999999 273.07900000000006 356.91399999999993 273.1050000000001 356.7849999999999 C 273.18500000000006 356.37999999999994 273.23600000000005 355.9709999999999 273.28800000000007 355.56299999999993 C 273.3070000000001 355.40599999999995 273.3400000000001 355.25299999999993 273.35600000000005 355.09599999999995 C 273.40700000000004 354.57099999999997 273.43100000000004 354.04299999999995 273.434 353.51599999999996 C 273.434 353.47599999999994 273.439 353.436 273.439 353.39599999999996 L 273.439 165.829 L 397.171 42.095 L 469.908 114.832 L 341.068 243.671 C 334.25899999999996 250.48 334.25899999999996 261.521 341.068 268.332 L 469.908 397.171 L 397.17100000000005 469.908 L 336.76400000000007 409.50100000000003 C 329.95500000000004 402.692 318.91400000000004 402.692 312.10300000000007 409.50100000000003 C 305.29400000000004 416.31000000000006 305.29400000000004 427.35100000000006 312.10300000000007 434.16200000000003 L 384.84000000000003 506.899 C 388.245 510.303 392.70700000000005 512.006 397.16900000000004 512.006 C 401.63100000000003 512.006 406.095 510.30199999999996 409.49800000000005 506.89899999999994 L 506.89300000000003 409.50399999999996 C 513.702 402.69499999999994 513.702 391.65399999999994 506.89300000000003 384.84499999999997 L 378.055 256 z M 170.937 268.329 C 177.746 261.52 177.746 250.479 170.937 243.668 L 42.096 114.83 L 114.833 42.093 L 238.565 165.82600000000002 L 238.565 346.17100000000005 L 114.833 469.905 L 42.096000000000004 397.168 L 170.937 268.329 z"
      stroke-linecap="round"/>
</g>
</g>
</g>
</svg>