<?xml version="1.0" encoding="UTF-8" standalone="no" ?>
<!DOCTYPE svg PUBLIC "-//W3C//DTD SVG 1.1//EN" "http://www.w3.org/Graphics/SVG/1.1/DTD/svg11.dtd">
<svg xmlns="http://www.w3.org/2000/svg" xmlns:xlink="http://www.w3.org/1999/xlink" version="1.1" width="40" height="40"
     viewBox="0 0 500 500" xml:space="preserve">
<desc>Created with Fabric.js 4.6.0</desc>
    <defs>
</defs>
    <g transform="matrix(1.09 0 0 0.97 250 250)" id="Sx5tCEapwjUHAboaMC2wJ">
<g style="" vector-effect="non-scaling-stroke">
		<g transform="matrix(1 0 0 1 -125.21 28.12)" id="0JIm01hjfC6DMN2XRrL-Q">
<path style="stroke: none; stroke-width: 1; stroke-dasharray: none; stroke-linecap: butt; stroke-dashoffset: 0; stroke-linejoin: miter; stroke-miterlimit: 4; fill: rgb(244,178,176); fill-rule: nonzero; opacity: 1;"
      vector-effect="non-scaling-stroke" transform=" translate(-130.78, -284.12)"
      d="M 178.652 462.067 L 110.27599999999998 462.067 L 82.91799999999998 106.17700000000002 L 178.652 106.17700000000002 z"
      stroke-linecap="round"/>
</g>
    <g transform="matrix(1 0 0 1 -13.47 -220.76)" id="X1NqHKcHrwGacenSo6VAR">
<path style="stroke: none; stroke-width: 1; stroke-dasharray: none; stroke-linecap: butt; stroke-dashoffset: 0; stroke-linejoin: miter; stroke-miterlimit: 4; fill: rgb(179,64,74); fill-rule: nonzero; opacity: 1;"
      vector-effect="non-scaling-stroke" transform=" translate(-242.53, -35.24)"
      d="M 311.198 70.475 C 302.714 70.475 295.83299999999997 63.59499999999999 295.83299999999997 55.10999999999999 L 295.83299999999997 30.73 L 189.232 30.73 L 189.232 55.11 C 189.232 63.594 182.352 70.475 173.867 70.475 C 165.38199999999998 70.475 158.50199999999998 63.59499999999999 158.50199999999998 55.10999999999999 L 158.50199999999998 15.365 C 158.503 6.88 165.383 0 173.867 0 L 311.198 0 C 319.68199999999996 0 326.563 6.88 326.563 15.365 L 326.563 55.11 C 326.563 63.596 319.684 70.475 311.198 70.475 z"
      stroke-linecap="round"/>
</g>
    <g transform="matrix(1 0 0 1 92.58 -16.14)" id="8SzpR-pANdfaqpz1zlr62">
<path style="stroke: none; stroke-width: 1; stroke-dasharray: none; stroke-linecap: butt; stroke-dashoffset: 0; stroke-linejoin: miter; stroke-miterlimit: 4; fill: rgb(244,178,176); fill-rule: nonzero; opacity: 1;"
      vector-effect="non-scaling-stroke" transform=" translate(-348.58, -239.86)"
      d="M 380.052 319.948 L 396.44300000000004 106.17899999999997 L 300.71 106.17899999999997 L 300.71 373.548 C 313.965 342.592 344.435 320.72 380.052 319.948 z"
      stroke-linecap="round"/>
</g>
    <g transform="matrix(1 0 0 1 0 45.41)" id="kCwaupyDoBqUqd1_3kBkB">
<path style="stroke: none; stroke-width: 1; stroke-dasharray: none; stroke-linecap: butt; stroke-dashoffset: 0; stroke-linejoin: miter; stroke-miterlimit: 4; fill: rgb(179,64,74); fill-rule: nonzero; opacity: 1;"
      vector-effect="non-scaling-stroke" transform=" translate(-256, -301.41)"
      d="M 470.304 392.923 C 461.82 392.923 454.93899999999996 399.803 454.93899999999996 408.288 C 454.93899999999996 448.53000000000003 422.198 481.271 381.95599999999996 481.271 C 341.71299999999997 481.271 308.972 448.53000000000003 308.972 408.288 C 308.972 373.809 333.49399999999997 344.443 366 337.08000000000004 C 366.011 337.07800000000003 366.02 337.07500000000005 366.031 337.07400000000007 C 368.334 336.55300000000005 370.676 336.14400000000006 373.053 335.85100000000006 C 373.101 335.8450000000001 373.148 335.84000000000003 373.19599999999997 335.83400000000006 C 374.315 335.69900000000007 375.441 335.59000000000003 376.573 335.50500000000005 C 376.654 335.4990000000001 376.73699999999997 335.49100000000004 376.81899999999996 335.4870000000001 C 378.00199999999995 335.40400000000005 379.193 335.3470000000001 380.39 335.3210000000001 C 388.467 335.1500000000001 394.94399999999996 328.7770000000001 395.395 320.84600000000006 L 410.67699999999996 121.54400000000007 L 437.66799999999995 121.54400000000007 C 446.15199999999993 121.54400000000007 453.03299999999996 114.66400000000007 453.03299999999996 106.17900000000007 C 453.03299999999996 97.69400000000007 446.15299999999996 90.81400000000008 437.66799999999995 90.81400000000008 L 396.44399999999996 90.81400000000008 L 300.70899999999995 90.81400000000008 L 178.652 90.81400000000008 L 82.918 90.81400000000008 L 41.695 90.81400000000008 C 33.211 90.81400000000008 26.33 97.69400000000007 26.33 106.17900000000007 C 26.33 114.66400000000007 33.21 121.54400000000007 41.695 121.54400000000007 L 68.689 121.54400000000007 L 94.957 463.24800000000005 C 95.57199999999999 471.25300000000004 102.24799999999999 477.434 110.27699999999999 477.434 L 178.653 477.434 L 226.519 477.434 C 235.00300000000001 477.434 241.88400000000001 470.55400000000003 241.88400000000001 462.069 C 241.88400000000001 453.58500000000004 235.00400000000002 446.704 226.519 446.704 L 194.018 446.704 L 194.018 121.542 L 285.345 121.542 L 285.345 370.507 C 280.697 382.398 278.242 395.16 278.242 408.286 C 278.242 465.474 324.76800000000003 511.998 381.956 511.998 C 439.144 511.998 485.668 465.473 485.668 408.286 C 485.669 399.802 478.788 392.923 470.304 392.923 z M 316.075 121.542 L 379.85699999999997 121.542 L 365.726 305.844 C 365.657 305.855 365.589 305.87 365.52 305.879 C 364.589 306.026 363.664 306.199 362.739 306.37100000000004 C 362.46599999999995 306.42300000000006 362.19399999999996 306.47400000000005 361.92199999999997 306.52900000000005 C 345.087 309.81200000000007 329.393 317.20400000000006 316.07599999999996 328.19500000000005 L 316.07599999999996 121.542 L 316.075 121.542 z M 163.287 446.703 L 124.50500000000001 446.703 L 99.509 121.542 L 163.288 121.542 L 163.288 446.703 L 163.287 446.703 z"
      stroke-linecap="round"/>
</g>
    <g transform="matrix(1 0 0 1 125.96 152.3)" id="yF65NRjI1mJ9B6Yq8tX7a">
<path style="stroke: none; stroke-width: 1; stroke-dasharray: none; stroke-linecap: butt; stroke-dashoffset: 0; stroke-linejoin: miter; stroke-miterlimit: 4; fill: rgb(179,64,74); fill-rule: nonzero; opacity: 1;"
      vector-effect="non-scaling-stroke" transform=" translate(-381.95, -408.3)"
      d="M 403.685 408.297 L 411.653 400.329 C 417.653 394.329 417.653 384.6 411.653 378.599 C 405.65200000000004 372.601 395.92600000000004 372.601 389.923 378.599 L 381.955 386.567 L 373.98699999999997 378.599 C 367.989 372.604 358.263 372.601 352.25699999999995 378.599 C 346.25699999999995 384.599 346.25699999999995 394.328 352.25699999999995 400.329 L 360.22499999999997 408.297 L 352.25699999999995 416.26500000000004 C 346.25699999999995 422.26500000000004 346.25699999999995 431.994 352.25699999999995 437.99500000000006 C 355.2579999999999 440.9940000000001 359.18999999999994 442.49500000000006 363.1209999999999 442.49500000000006 C 367.05299999999994 442.49500000000006 370.9849999999999 440.9940000000001 373.9849999999999 437.99500000000006 L 381.9529999999999 430.02700000000004 L 389.92099999999994 437.99500000000006 C 392.9219999999999 440.9940000000001 396.8539999999999 442.49500000000006 400.7849999999999 442.49500000000006 C 404.7169999999999 442.49500000000006 408.6489999999999 440.9940000000001 411.6489999999999 437.99500000000006 C 417.6489999999999 431.99500000000006 417.6489999999999 422.2660000000001 411.6489999999999 416.26500000000004 L 403.685 408.297 z"
      stroke-linecap="round"/>
</g>
</g>
</g>
</svg>